<svg xmlns="http://www.w3.org/2000/svg" width="1254" height="1254" viewBox="0 0 1254 1254" version="1.1"><path d="M 965 177.691 C 964.175 177.985, 958.550 180.177, 952.500 182.564 C 946.450 184.950, 929.800 191.381, 915.500 196.855 C 866.476 215.622, 807.755 238.370, 777 250.508 C 766.825 254.524, 749.050 261.494, 737.500 265.997 C 725.950 270.500, 697.981 281.556, 675.346 290.566 C 597.057 321.730, 542.647 343.167, 500 359.651 C 493.675 362.095, 487.730 364.412, 486.788 364.798 C 485.846 365.184, 471.012 386.425, 453.823 412 C 436.634 437.575, 413.462 472, 402.329 488.500 C 364.400 544.716, 335 588.941, 335 589.782 C 335 590.243, 342.734 596.668, 352.187 604.060 C 361.639 611.452, 377.052 623.502, 386.437 630.837 C 416.301 654.180, 432.462 666.898, 463.361 691.373 C 479.937 704.504, 494.004 715.442, 494.620 715.680 C 495.770 716.126, 516.145 706.966, 554 688.985 C 565.825 683.369, 586.750 673.473, 600.500 666.996 C 614.250 660.519, 631.720 652.253, 639.322 648.627 L 653.143 642.035 638.822 630.246 C 630.945 623.761, 621.350 615.935, 617.500 612.853 C 613.650 609.772, 598.800 597.729, 584.500 586.092 C 535.561 546.267, 504.449 521.087, 498.944 516.850 L 495.500 514.200 505 509.720 C 510.225 507.256, 526.650 499.284, 541.500 492.004 C 556.350 484.723, 574.350 475.952, 581.500 472.512 C 588.650 469.071, 612.725 457.370, 635 446.509 C 698.091 415.746, 734.463 398.193, 760 386.184 C 840.755 348.210, 829.709 355.030, 847 332.467 C 851.125 327.085, 855.850 321, 857.500 318.945 C 859.150 316.891, 865.675 308.558, 872 300.426 C 878.325 292.295, 885.321 283.360, 887.546 280.571 C 902.855 261.383, 964.990 181.978, 966.440 179.750 C 968.207 177.035, 967.936 176.647, 965 177.691 M 804.469 472.700 C 789.927 479.476, 778.595 484.667, 723.500 509.791 C 705.350 518.068, 683.075 528.292, 674 532.512 C 664.925 536.732, 656.712 540.421, 655.750 540.709 C 654.035 541.223, 653.265 543, 654.757 543 C 655.174 543, 658.291 545.362, 661.684 548.250 C 665.078 551.138, 673.174 557.851, 679.677 563.169 C 686.180 568.487, 701.191 580.862, 713.035 590.669 C 734.764 608.661, 738.858 612.019, 773.750 640.484 C 796.516 659.057, 795.358 655.888, 781.750 662.378 C 750.335 677.361, 694.887 704.059, 674.500 714.017 C 661.850 720.196, 642.950 729.406, 632.500 734.484 C 622.050 739.561, 576.116 761.949, 530.424 784.235 C 484.732 806.521, 446.482 825.041, 445.424 825.392 C 444.366 825.742, 442.219 827.842, 440.654 830.058 C 437.653 834.306, 412.056 867.798, 344.400 956 C 283.391 1035.535, 266.050 1058.384, 266.417 1058.750 C 266.599 1058.932, 290.992 1047.016, 320.624 1032.269 C 350.256 1017.522, 380.350 1002.682, 387.500 999.291 C 394.650 995.900, 418.050 984.496, 439.500 973.948 C 485.214 951.470, 545.514 922.121, 555.500 917.491 C 559.350 915.706, 566.775 912.134, 572 909.554 C 583.980 903.639, 628.042 882.752, 646.500 874.240 C 684.202 856.852, 711.985 844.111, 726.500 837.551 C 753.595 825.306, 803.389 802.955, 805.505 802.088 C 806.608 801.636, 811.413 795.469, 816.183 788.383 C 820.953 781.297, 831.700 765.600, 840.066 753.500 C 848.431 741.400, 858.212 727.225, 861.802 722 C 865.392 716.775, 873.799 704.625, 880.485 695 C 893.535 676.212, 894.651 674.604, 915.153 645 C 959.291 581.268, 958.264 582.830, 956.853 581.545 C 956.109 580.867, 951.480 576.980, 946.567 572.906 C 941.655 568.833, 929.001 558.300, 918.448 549.500 C 907.895 540.700, 882.439 519.508, 861.880 502.406 C 841.321 485.304, 823.136 470.159, 821.469 468.751 L 818.438 466.191 804.469 472.700" stroke="none" fill="#7357f6" fill-rule="evenodd"/></svg>
